<svg width="32" height="32" viewBox="0 0 32 32" fill="none" xmlns="http://www.w3.org/2000/svg">
<rect width="32" height="32" rx="8" fill="white"/>
<g clip-path="url(#clip0_822_106)">
<path d="M4.8496 6.91793L4.80903 6.93623C2.90492 7.79545 2.05786 10.0356 2.91707 11.9397L8.26146 23.7835C9.12068 25.6876 11.3608 26.5346 13.2649 25.6754L13.3055 25.6571C15.2096 24.7979 16.0566 22.5578 15.1974 20.6537L9.85304 8.80989C8.99383 6.90578 6.75371 6.05872 4.8496 6.91793Z" fill="#FFB703"/>
<path d="M14.5471 6.91195L14.5067 6.93044C12.6065 7.79841 11.7698 10.0424 12.6378 11.9425L17.8823 23.4238C18.7503 25.3239 20.9943 26.1606 22.8944 25.2927L22.9349 25.2742C24.8351 24.4062 25.6718 22.1622 24.8038 20.2621L19.5592 8.78084C18.6913 6.88071 16.4473 6.04398 14.5471 6.91195Z" fill="#FD9E02"/>
<path d="M25.5567 14.1971C27.6579 14.1971 29.3614 12.4937 29.3614 10.3924C29.3614 8.2911 27.6579 6.58768 25.5567 6.58768C23.4554 6.58768 21.752 8.2911 21.752 10.3924C21.752 12.4937 23.4554 14.1971 25.5567 14.1971Z" fill="#FB8500"/>
</g>
<defs>
<clipPath id="clip0_822_106">
<rect width="28" height="28" fill="white" transform="translate(2 2)"/>
</clipPath>
</defs>
</svg>
